<?xml version="1.0" encoding="UTF-8"?>
<svg width="60px" height="42px" viewBox="0 0 60 42" version="1.1" xmlns="http://www.w3.org/2000/svg" xmlns:xlink="http://www.w3.org/1999/xlink">
    <!-- Generator: Sketch 63.1 (92452) - https://sketch.com -->
    <title>yt_icon_mono_light_white</title>
    <desc>Created with Sketch.</desc>
    <g id="Final-Mockups" stroke="none" stroke-width="1" fill="none" fill-rule="evenodd">
        <g id="yt_icon_mono_light_white">
            <g id="Group-3"></g>
            <path d="M30.4606148,0.000929095372 C33.3688317,0.010770213 49.1978806,0.116562227 53.4416123,1.25382638 C56.0233217,1.94377987 58.0561665,3.97672088 58.7461678,6.55837305 C60.0000339,11.2373212 60.0000339,20.9999768 60.0000339,20.9999768 C59.9996969,21.3186868 59.9794787,30.8390088 58.7461678,35.4419193 C58.0561665,38.0232327 56.0233217,40.0561737 53.4416123,40.7464659 C48.8714398,41.9708811 30.8650413,41.9993559 30.0300061,42.0000181 L29.9699476,42.0000181 C29.1349123,41.9993559 11.1285139,41.9708811 6.55834132,40.7464659 C3.97697277,40.0561737 1.94378709,38.0232327 1.25378577,35.4419193 C0.102695656,31.1458695 0.00834400695,22.5662079 0.000610265228,21.1885696 L0.000610265228,20.811378 C0.00834400695,19.433697 0.102695656,10.8538009 1.25378577,6.55837305 C1.94378709,3.97672088 3.97697277,1.94377987 6.55834132,1.25382638 C10.802073,0.116562227 26.6311219,0.010770213 29.5393388,0.000929095372 Z M23.7988477,12.0014764 L23.7988477,29.6704347 L39.5530676,20.8362931 L23.7988477,12.0014764 Z" id="Combined-Shape" fill="#FFFFFF"></path>
        </g>
    </g>
</svg>